# xmcd
#
# Track frame offsets:
#	150
#	11984
#	23215
#	34553
#	47417
#	58309
#	70341
#	79767
#	95369
#	110807
#	128463
#	149319
#	163227
#	179421
#	193767
#	205807
#	221296
#	254373
#
# Disc length: 3827 seconds
#
# Revision: 1
# Processed by: cddbd v1.5.2PL0 Copyright (c) Steve Scherf et al.
# Submitted via: audiograbber 1.83.01
#
DISCID=040ef112
DTITLE=Various Artist - Stefans Schmalztöpfchen
DYEAR=1900
DGENRE=
TTITLE0=D. Selveras - Die gelbe Kutsche
TTITLE1=G. Hoffman - Goldscmied Töchterlein
TTITLE2=Blaunen Jungs - Zuhause, Zuhause
TTITLE3=Heidesänger - Junges Herz und graue Haare
TTITLE4=D. Jakobiner - Holzhackerliesl
TTITLE5=unbekannt - Der Wagen, der rollt
TTITLE6=unbekannt - Im Weißen Rö´ßl am Wofgnagsee
TTITLE7=D. Selveras - Gute Nacht
TTITLE8=Vi. Leandros - Die Bouzouki Klang
TTITLE9=Dem. Roussos - Goodby, my love, goodbye
TTITLE10=C. Anders - Es fährt ein Zug
TTITLE11=Monica Morell - Ich fang nie mehr was an einem Sonntag an
TTITLE12=T. Rainford - Silverbird
TTITLE13=T. Berg - Ich hab dir ni den Himmel
TTITLE14=B. Spier - Du kannst mi nicht verb...
TTITLE15=unbekannt - Alte Kameraden
TTITLE16=E. Humperdinck - Hänsel and Grtel I
TTITLE17=E. Humperdinck - Hänsel and Gretel II
EXTD=
EXTT0=
EXTT1=
EXTT2=
EXTT3=
EXTT4=
EXTT5=
EXTT6=
EXTT7=
EXTT8=
EXTT9=
EXTT10=
EXTT11=
EXTT12=
EXTT13=
EXTT14=
EXTT15=
EXTT16=
EXTT17=
PLAYORDER=
